<svg viewBox="0 0 1350 950" xmlns="http://www.w3.org/2000/svg" xmlns:xlink="http://www.w3.org/1999/xlink" id="Logos" overflow="hidden"><style>
.MsftOfcThm_Accent1_Fill_v2 {
 fill:#FEFFFF; 
}
</style>
<defs></defs><path d="M647 635C455.62 481.77 375.78 285 175 285L175 635 647 635Z" class="MsftOfcThm_Accent1_Fill_v2" fill="#FEFFFF"/><path d="M1054.03 279.75C1014.95 279.75 980.01 296.75 959.75 321.71L959.75 175 912.5 175 912.5 525 951.4 525 956.39 488.21C970.11 506.58 998.06 530.25 1051.76 530.25 1123.9 530.25 1175.01 478.68 1175.01 405.58 1175.01 332.48 1125.97 279.75 1054.04 279.75ZM1041.09 486.41C989.05 486.41 957.98 455.43 957.98 405.07 957.98 354.71 989.81 323.73 1041.09 323.73 1092.37 323.73 1124.2 354.71 1124.2 405.07 1124.2 455.43 1092.37 486.41 1041.09 486.41Z" class="MsftOfcThm_Accent1_Fill_v2" fill="#FEFFFF"/><rect x="830.25" y="175" width="47.25" height="350" class="MsftOfcThm_Accent1_Fill_v2" fill="#FEFFFF"/><path d="M696.69 489.45C662.23 489.45 626.05 472.64 606.62 448.48L574.75 478.81C605.83 514.03 646.48 530.25 694.65 530.25 760.76 530.25 802.25 500.8 802.25 451.14 802.25 347.91 622.92 412.47 622.92 354.29 622.92 333 647.75 320.94 686.42 320.94 720.88 320.94 745.76 332.11 761.23 348.08L793.1 317.75C772 295.05 732.27 279.75 687.61 279.75 620.8 279.75 576.85 311.36 576.85 361.38 576.85 461.77 755.47 397.92 755.47 456.45 755.47 477.03 732.19 489.44 696.68 489.44Z" class="MsftOfcThm_Accent1_Fill_v2" fill="#FEFFFF"/><path d="M1169.75 600 659 600C764.43 686.03 926.31 775 1169.75 775L1169.75 600Z" class="MsftOfcThm_Accent1_Fill_v2" fill="#FEFFFF"/></svg>